{
    "asset" : {
        "generator" : "Khronos glTF Blender I/O v1.0.5",
        "version" : "2.0"
    },
    "scene" : 0,
    "scenes" : [
        {
            "name" : "Scene",
            "nodes" : [
                0,
                1,
                2,
                3,
                4,
                5
            ]
        }
    ],
    "nodes" : [
        {
            "name" : "Light",
            "rotation" : [
                0.16907577216625214,
                0.7558802962303162,
                -0.27217137813568115,
                0.570947527885437
            ],
            "translation" : [
                -0.19181430339813232,
                7.400345802307129,
                0.8974215984344482
            ]
        },
        {
            "mesh" : 0,
            "name" : "Cube",
            "scale" : [
                1.3254635334014893,
                0.4900079667568207,
                2.5863821506500244
            ]
        },
        {
            "mesh" : 1,
            "name" : "Cylinder",
            "scale" : [
                -0.07076437771320343,
                0.24172601103782654,
                -0.07076437771320343
            ],
            "translation" : [
                0.9381478428840637,
                0.7113349437713623,
                -1.0621675252914429
            ]
        },
        {
            "mesh" : 2,
            "name" : "Cube.001",
            "rotation" : [
                0,
                0.3535577952861786,
                0,
                0.9354127049446106
            ],
            "scale" : [
                0.2903686463832855,
                0.026072673499584198,
                0.03480153530836105
            ],
            "translation" : [
                0.7165854573249817,
                0.9164990186691284,
                -0.8675333261489868
            ]
        },
        {
            "mesh" : 3,
            "name" : "Cube.002",
            "rotation" : [
                0,
                -0.3486815094947815,
                0,
                0.93724125623703
            ],
            "scale" : [
                -0.2903686463832855,
                0.026072673499584198,
                0.03480153530836105
            ],
            "translation" : [
                0.7398273348808289,
                0.943825364112854,
                6.101707935333252
            ]
        },
        {
            "mesh" : 4,
            "name" : "Cylinder.001",
            "scale" : [
                -0.07076437771320343,
                0.24172601103782654,
                -0.07076437771320343
            ],
            "translation" : [
                0.9531556367874146,
                0.7386611700057983,
                6.279736518859863
            ]
        }
    ],
    "materials" : [
        {
            "doubleSided" : true,
            "name" : "Material.001",
            "pbrMetallicRoughness" : {
                "baseColorTexture" : {
                    "index" : 0,
                    "texCoord" : 0
                },
                "metallicFactor" : 0.7948718070983887,
                "roughnessFactor" : 0.5
            }
        },
        {
            "doubleSided" : true,
            "name" : "marmer",
            "pbrMetallicRoughness" : {
                "baseColorTexture" : {
                    "index" : 1,
                    "texCoord" : 0
                },
                "metallicFactor" : 0,
                "roughnessFactor" : 0.1794871687889099
            }
        },
        {
            "doubleSided" : true,
            "name" : "kraan",
            "pbrMetallicRoughness" : {
                "baseColorFactor" : [
                    0,
                    0,
                    0,
                    1
                ],
                "metallicFactor" : 0.24359005689620972,
                "roughnessFactor" : 0.29487180709838867
            }
        },
        {
            "doubleSided" : true,
            "name" : "kraan.001",
            "pbrMetallicRoughness" : {
                "baseColorFactor" : [
                    0,
                    0,
                    0,
                    1
                ],
                "metallicFactor" : 0.24359005689620972,
                "roughnessFactor" : 0.29487180709838867
            }
        }
    ],
    "meshes" : [
        {
            "name" : "Cube.001",
            "primitives" : [
                {
                    "attributes" : {
                        "POSITION" : 0,
                        "NORMAL" : 1,
                        "TEXCOORD_0" : 2
                    },
                    "indices" : 3,
                    "material" : 0
                },
                {
                    "attributes" : {
                        "POSITION" : 4,
                        "NORMAL" : 5,
                        "TEXCOORD_0" : 6
                    },
                    "indices" : 7,
                    "material" : 1
                }
            ]
        },
        {
            "name" : "Cylinder.001",
            "primitives" : [
                {
                    "attributes" : {
                        "POSITION" : 8,
                        "NORMAL" : 9,
                        "TEXCOORD_0" : 10
                    },
                    "indices" : 11,
                    "material" : 2
                }
            ]
        },
        {
            "name" : "Cube.002",
            "primitives" : [
                {
                    "attributes" : {
                        "POSITION" : 12,
                        "NORMAL" : 13,
                        "TEXCOORD_0" : 14
                    },
                    "indices" : 15,
                    "material" : 2
                }
            ]
        },
        {
            "name" : "Cube.003",
            "primitives" : [
                {
                    "attributes" : {
                        "POSITION" : 16,
                        "NORMAL" : 17,
                        "TEXCOORD_0" : 18
                    },
                    "indices" : 15,
                    "material" : 3
                }
            ]
        },
        {
            "name" : "Cylinder.003",
            "primitives" : [
                {
                    "attributes" : {
                        "POSITION" : 19,
                        "NORMAL" : 20,
                        "TEXCOORD_0" : 21
                    },
                    "indices" : 11,
                    "material" : 3
                }
            ]
        }
    ],
    "textures" : [
        {
            "source" : 0
        },
        {
            "sampler" : 0,
            "source" : 1
        }
    ],
    "images" : [
        {
            "bufferView" : 4,
            "mimeType" : "image/jpeg",
            "name" : "marbleblack"
        },
        {
            "bufferView" : 9,
            "mimeType" : "image/jpeg",
            "name" : "marble"
        }
    ],
    "accessors" : [
        {
            "bufferView" : 0,
            "componentType" : 5126,
            "count" : 500,
            "max" : [
                1,
                1,
                3
            ],
            "min" : [
                -1,
                -1,
                -1
            ],
            "type" : "VEC3"
        },
        {
            "bufferView" : 1,
            "componentType" : 5126,
            "count" : 500,
            "type" : "VEC3"
        },
        {
            "bufferView" : 2,
            "componentType" : 5126,
            "count" : 500,
            "type" : "VEC2"
        },
        {
            "bufferView" : 3,
            "componentType" : 5123,
            "count" : 1032,
            "type" : "SCALAR"
        },
        {
            "bufferView" : 5,
            "componentType" : 5126,
            "count" : 2944,
            "max" : [
                0.8034002780914307,
                1.0647798776626587,
                2.5535340309143066
            ],
            "min" : [
                -0.8033998608589172,
                -0.26930001378059387,
                -0.5535337924957275
            ],
            "type" : "VEC3"
        },
        {
            "bufferView" : 6,
            "componentType" : 5126,
            "count" : 2944,
            "type" : "VEC3"
        },
        {
            "bufferView" : 7,
            "componentType" : 5126,
            "count" : 2944,
            "type" : "VEC2"
        },
        {
            "bufferView" : 8,
            "componentType" : 5123,
            "count" : 4608,
            "type" : "SCALAR"
        },
        {
            "bufferView" : 10,
            "componentType" : 5126,
            "count" : 192,
            "max" : [
                1,
                1,
                1
            ],
            "min" : [
                -1,
                -1,
                -1
            ],
            "type" : "VEC3"
        },
        {
            "bufferView" : 11,
            "componentType" : 5126,
            "count" : 192,
            "type" : "VEC3"
        },
        {
            "bufferView" : 12,
            "componentType" : 5126,
            "count" : 192,
            "type" : "VEC2"
        },
        {
            "bufferView" : 13,
            "componentType" : 5123,
            "count" : 372,
            "type" : "SCALAR"
        },
        {
            "bufferView" : 14,
            "componentType" : 5126,
            "count" : 24,
            "max" : [
                1,
                1,
                1
            ],
            "min" : [
                -1,
                -1,
                -1
            ],
            "type" : "VEC3"
        },
        {
            "bufferView" : 15,
            "componentType" : 5126,
            "count" : 24,
            "type" : "VEC3"
        },
        {
            "bufferView" : 16,
            "componentType" : 5126,
            "count" : 24,
            "type" : "VEC2"
        },
        {
            "bufferView" : 17,
            "componentType" : 5123,
            "count" : 36,
            "type" : "SCALAR"
        },
        {
            "bufferView" : 18,
            "componentType" : 5126,
            "count" : 24,
            "max" : [
                1,
                1,
                1
            ],
            "min" : [
                -1,
                -1,
                -1
            ],
            "type" : "VEC3"
        },
        {
            "bufferView" : 19,
            "componentType" : 5126,
            "count" : 24,
            "type" : "VEC3"
        },
        {
            "bufferView" : 20,
            "componentType" : 5126,
            "count" : 24,
            "type" : "VEC2"
        },
        {
            "bufferView" : 21,
            "componentType" : 5126,
            "count" : 192,
            "max" : [
                1,
                1,
                1
            ],
            "min" : [
                -1,
                -1,
                -1
            ],
            "type" : "VEC3"
        },
        {
            "bufferView" : 22,
            "componentType" : 5126,
            "count" : 192,
            "type" : "VEC3"
        },
        {
            "bufferView" : 23,
            "componentType" : 5126,
            "count" : 192,
            "type" : "VEC2"
        }
    ],
    "bufferViews" : [
        {
            "buffer" : 0,
            "byteLength" : 6000,
            "byteOffset" : 0
        },
        {
            "buffer" : 0,
            "byteLength" : 6000,
            "byteOffset" : 6000
        },
        {
            "buffer" : 0,
            "byteLength" : 4000,
            "byteOffset" : 12000
        },
        {
            "buffer" : 0,
            "byteLength" : 2064,
            "byteOffset" : 16000
        },
        {
            "buffer" : 0,
            "byteLength" : 158001,
            "byteOffset" : 18064
        },
        {
            "buffer" : 0,
            "byteLength" : 35328,
            "byteOffset" : 176068
        },
        {
            "buffer" : 0,
            "byteLength" : 35328,
            "byteOffset" : 211396
        },
        {
            "buffer" : 0,
            "byteLength" : 23552,
            "byteOffset" : 246724
        },
        {
            "buffer" : 0,
            "byteLength" : 9216,
            "byteOffset" : 270276
        },
        {
            "buffer" : 0,
            "byteLength" : 3238,
            "byteOffset" : 279492
        },
        {
            "buffer" : 0,
            "byteLength" : 2304,
            "byteOffset" : 282732
        },
        {
            "buffer" : 0,
            "byteLength" : 2304,
            "byteOffset" : 285036
        },
        {
            "buffer" : 0,
            "byteLength" : 1536,
            "byteOffset" : 287340
        },
        {
            "buffer" : 0,
            "byteLength" : 744,
            "byteOffset" : 288876
        },
        {
            "buffer" : 0,
            "byteLength" : 288,
            "byteOffset" : 289620
        },
        {
            "buffer" : 0,
            "byteLength" : 288,
            "byteOffset" : 289908
        },
        {
            "buffer" : 0,
            "byteLength" : 192,
            "byteOffset" : 290196
        },
        {
            "buffer" : 0,
            "byteLength" : 72,
            "byteOffset" : 290388
        },
        {
            "buffer" : 0,
            "byteLength" : 288,
            "byteOffset" : 290460
        },
        {
            "buffer" : 0,
            "byteLength" : 288,
            "byteOffset" : 290748
        },
        {
            "buffer" : 0,
            "byteLength" : 192,
            "byteOffset" : 291036
        },
        {
            "buffer" : 0,
            "byteLength" : 2304,
            "byteOffset" : 291228
        },
        {
            "buffer" : 0,
            "byteLength" : 2304,
            "byteOffset" : 293532
        },
        {
            "buffer" : 0,
            "byteLength" : 1536,
            "byteOffset" : 295836
        }
    ],
    "samplers" : [
        {
            "magFilter" : 9729,
            "minFilter" : 9986,
            "wrapS" : 33071,
            "wrapT" : 33071
        }
    ],
    "buffers" : [
        {
            "byteLength" : 297372,
            "uri" : "data:application/octet-stream;base64,"
        }
    ]
}
