{
    "asset" : {
        "generator" : "Khronos glTF Blender I/O v1.0.5",
        "version" : "2.0"
    },
    "scene" : 0,
    "scenes" : [
        {
            "name" : "Scene",
            "nodes" : [
                0,
                1,
                2,
                3,
                4
            ]
        }
    ],
    "nodes" : [
        {
            "mesh" : 0,
            "name" : "table",
            "scale" : [
                0.038613978773355484,
                0.038613978773355484,
                0.038613978773355484
            ],
            "translation" : [
                0.9534001350402832,
                0.10157768428325653,
                0.36885327100753784
            ]
        },
        {
            "mesh" : 1,
            "name" : "Cube",
            "scale" : [
                0.02486223354935646,
                0.02486223354935646,
                0.02486223354935646
            ],
            "translation" : [
                0.9534001350402832,
                0.004904657602310181,
                -0.10122346878051758
            ]
        },
        {
            "mesh" : 2,
            "name" : "Cube.001",
            "scale" : [
                0.018077151849865913,
                0.018077151849865913,
                0.018077151849865913
            ],
            "translation" : [
                0.9637469053268433,
                0.24005326628684998,
                -0.14464479684829712
            ]
        },
        {
            "mesh" : 3,
            "name" : "Cube.002",
            "rotation" : [
                0,
                0.9070655703544617,
                0,
                0.42098939418792725
            ],
            "scale" : [
                0.02486223354935646,
                0.02486223354935646,
                0.02486223354935646
            ],
            "translation" : [
                1.4379204511642456,
                0.004904657602310181,
                1.0323233604431152
            ]
        },
        {
            "mesh" : 4,
            "name" : "Cube.003",
            "rotation" : [
                0,
                0.9070655703544617,
                0,
                0.42098939418792725
            ],
            "scale" : [
                0.018077151849865913,
                0.018077151849865913,
                0.018077151849865913
            ],
            "translation" : [
                1.3980791568756104,
                0.24005326628684998,
                1.052451252937317
            ]
        }
    ],
    "materials" : [
        {
            "doubleSided" : true,
            "name" : "tabelMetal",
            "pbrMetallicRoughness" : {
                "baseColorFactor" : [
                    0,
                    0,
                    0,
                    1
                ],
                "metallicFactor" : 0.6000000238418579,
                "roughnessFactor" : 0.1826086938381195
            }
        },
        {
            "doubleSided" : true,
            "name" : "wood",
            "pbrMetallicRoughness" : {
                "baseColorTexture" : {
                    "index" : 0,
                    "texCoord" : 0
                },
                "metallicFactor" : 0,
                "roughnessFactor" : 0.5
            }
        },
        {
            "doubleSided" : true,
            "name" : "whitepillow",
            "pbrMetallicRoughness" : {
                "baseColorFactor" : [
                    0.800000011920929,
                    0.800000011920929,
                    0.800000011920929,
                    1
                ],
                "metallicFactor" : 0,
                "roughnessFactor" : 0.5
            }
        },
        {
            "doubleSided" : true,
            "name" : "pillow image",
            "pbrMetallicRoughness" : {
                "baseColorFactor" : [
                    0.7662911415100098,
                    0.7746390104293823,
                    0.8000000715255737,
                    1
                ],
                "metallicFactor" : 0,
                "roughnessFactor" : 0.5
            }
        }
    ],
    "meshes" : [
        {
            "name" : "Cylinder",
            "primitives" : [
                {
                    "attributes" : {
                        "POSITION" : 0,
                        "NORMAL" : 1,
                        "TEXCOORD_0" : 2
                    },
                    "indices" : 3,
                    "material" : 0
                },
                {
                    "attributes" : {
                        "POSITION" : 4,
                        "NORMAL" : 5,
                        "TEXCOORD_0" : 6
                    },
                    "indices" : 7,
                    "material" : 1
                }
            ]
        },
        {
            "name" : "Cube",
            "primitives" : [
                {
                    "attributes" : {
                        "POSITION" : 8,
                        "NORMAL" : 9,
                        "TEXCOORD_0" : 10
                    },
                    "indices" : 11,
                    "material" : 0
                },
                {
                    "attributes" : {
                        "POSITION" : 12,
                        "NORMAL" : 13,
                        "TEXCOORD_0" : 14
                    },
                    "indices" : 15,
                    "material" : 2
                },
                {
                    "attributes" : {
                        "POSITION" : 16,
                        "NORMAL" : 17,
                        "TEXCOORD_0" : 18
                    },
                    "indices" : 19,
                    "material" : 3
                }
            ]
        },
        {
            "name" : "Cube.001",
            "primitives" : [
                {
                    "attributes" : {
                        "POSITION" : 20,
                        "NORMAL" : 21,
                        "TEXCOORD_0" : 22
                    },
                    "indices" : 23,
                    "material" : 0
                }
            ]
        },
        {
            "name" : "Cube.003",
            "primitives" : [
                {
                    "attributes" : {
                        "POSITION" : 24,
                        "NORMAL" : 25,
                        "TEXCOORD_0" : 26
                    },
                    "indices" : 11,
                    "material" : 0
                },
                {
                    "attributes" : {
                        "POSITION" : 27,
                        "NORMAL" : 28,
                        "TEXCOORD_0" : 29
                    },
                    "indices" : 15,
                    "material" : 2
                },
                {
                    "attributes" : {
                        "POSITION" : 30,
                        "NORMAL" : 31,
                        "TEXCOORD_0" : 32
                    },
                    "indices" : 19,
                    "material" : 3
                }
            ]
        },
        {
            "name" : "Cube.004",
            "primitives" : [
                {
                    "attributes" : {
                        "POSITION" : 33,
                        "NORMAL" : 34,
                        "TEXCOORD_0" : 35
                    },
                    "indices" : 23,
                    "material" : 0
                }
            ]
        }
    ],
    "textures" : [
        {
            "source" : 0
        }
    ],
    "images" : [
        {
            "bufferView" : 8,
            "mimeType" : "image/jpeg",
            "name" : "ARABESCATO-LUNA_CI\u0307LALI_MERMER_CK-550x550"
        }
    ],
    "accessors" : [
        {
            "bufferView" : 0,
            "componentType" : 5126,
            "count" : 288,
            "max" : [
                6.556307315826416,
                20.505706787109375,
                6.556309700012207
            ],
            "min" : [
                -6.556308746337891,
                -2.4352381229400635,
                -6.5563063621521
            ],
            "type" : "VEC3"
        },
        {
            "bufferView" : 1,
            "componentType" : 5126,
            "count" : 288,
            "type" : "VEC3"
        },
        {
            "bufferView" : 2,
            "componentType" : 5126,
            "count" : 288,
            "type" : "VEC2"
        },
        {
            "bufferView" : 3,
            "componentType" : 5123,
            "count" : 474,
            "type" : "SCALAR"
        },
        {
            "bufferView" : 4,
            "componentType" : 5126,
            "count" : 288,
            "max" : [
                11.512624740600586,
                21.31158447265625,
                11.512629508972168
            ],
            "min" : [
                -11.512626647949219,
                20.505645751953125,
                -11.512621879577637
            ],
            "type" : "VEC3"
        },
        {
            "bufferView" : 5,
            "componentType" : 5126,
            "count" : 288,
            "type" : "VEC3"
        },
        {
            "bufferView" : 6,
            "componentType" : 5126,
            "count" : 288,
            "type" : "VEC2"
        },
        {
            "bufferView" : 7,
            "componentType" : 5123,
            "count" : 474,
            "type" : "SCALAR"
        },
        {
            "bufferView" : 9,
            "componentType" : 5126,
            "count" : 118,
            "max" : [
                13.698949813842773,
                29.26250648498535,
                1
            ],
            "min" : [
                -1,
                -1,
                -14.31739616394043
            ],
            "type" : "VEC3"
        },
        {
            "bufferView" : 10,
            "componentType" : 5126,
            "count" : 118,
            "type" : "VEC3"
        },
        {
            "bufferView" : 11,
            "componentType" : 5126,
            "count" : 118,
            "type" : "VEC2"
        },
        {
            "bufferView" : 12,
            "componentType" : 5123,
            "count" : 198,
            "type" : "SCALAR"
        },
        {
            "bufferView" : 13,
            "componentType" : 5126,
            "count" : 98,
            "max" : [
                13.698949813842773,
                43.98306655883789,
                0.8716146945953369
            ],
            "min" : [
                -0.996880292892456,
                25.748703002929688,
                -13.994253158569336
            ],
            "type" : "VEC3"
        },
        {
            "bufferView" : 14,
            "componentType" : 5126,
            "count" : 98,
            "type" : "VEC3"
        },
        {
            "bufferView" : 15,
            "componentType" : 5126,
            "count" : 98,
            "type" : "VEC2"
        },
        {
            "bufferView" : 16,
            "componentType" : 5123,
            "count" : 210,
            "type" : "SCALAR"
        },
        {
            "bufferView" : 17,
            "componentType" : 5126,
            "count" : 1011,
            "max" : [
                13.698949813842773,
                43.98306655883789,
                0.8716146945953369
            ],
            "min" : [
                -0.996880292892456,
                27.75983428955078,
                -13.51905345916748
            ],
            "type" : "VEC3"
        },
        {
            "bufferView" : 18,
            "componentType" : 5126,
            "count" : 1011,
            "type" : "VEC3"
        },
        {
            "bufferView" : 19,
            "componentType" : 5126,
            "count" : 1011,
            "type" : "VEC2"
        },
        {
            "bufferView" : 20,
            "componentType" : 5123,
            "count" : 1563,
            "type" : "SCALAR"
        },
        {
            "bufferView" : 21,
            "componentType" : 5126,
            "count" : 96,
            "max" : [
                16.7587890625,
                1.0513237714767456,
                2.9533040523529053
            ],
            "min" : [
                -1.056539535522461,
                -1,
                -16.242897033691406
            ],
            "type" : "VEC3"
        },
        {
            "bufferView" : 22,
            "componentType" : 5126,
            "count" : 96,
            "type" : "VEC3"
        },
        {
            "bufferView" : 23,
            "componentType" : 5126,
            "count" : 96,
            "type" : "VEC2"
        },
        {
            "bufferView" : 24,
            "componentType" : 5123,
            "count" : 144,
            "type" : "SCALAR"
        },
        {
            "bufferView" : 25,
            "componentType" : 5126,
            "count" : 118,
            "max" : [
                13.698949813842773,
                29.26250648498535,
                1
            ],
            "min" : [
                -1,
                -1,
                -14.31739616394043
            ],
            "type" : "VEC3"
        },
        {
            "bufferView" : 26,
            "componentType" : 5126,
            "count" : 118,
            "type" : "VEC3"
        },
        {
            "bufferView" : 27,
            "componentType" : 5126,
            "count" : 118,
            "type" : "VEC2"
        },
        {
            "bufferView" : 28,
            "componentType" : 5126,
            "count" : 98,
            "max" : [
                13.698949813842773,
                43.98306655883789,
                0.8716146945953369
            ],
            "min" : [
                -0.996880292892456,
                25.748703002929688,
                -13.994253158569336
            ],
            "type" : "VEC3"
        },
        {
            "bufferView" : 29,
            "componentType" : 5126,
            "count" : 98,
            "type" : "VEC3"
        },
        {
            "bufferView" : 30,
            "componentType" : 5126,
            "count" : 98,
            "type" : "VEC2"
        },
        {
            "bufferView" : 31,
            "componentType" : 5126,
            "count" : 1011,
            "max" : [
                13.698949813842773,
                43.98306655883789,
                0.8716146945953369
            ],
            "min" : [
                -0.996880292892456,
                27.75983428955078,
                -13.51905345916748
            ],
            "type" : "VEC3"
        },
        {
            "bufferView" : 32,
            "componentType" : 5126,
            "count" : 1011,
            "type" : "VEC3"
        },
        {
            "bufferView" : 33,
            "componentType" : 5126,
            "count" : 1011,
            "type" : "VEC2"
        },
        {
            "bufferView" : 34,
            "componentType" : 5126,
            "count" : 96,
            "max" : [
                16.7587890625,
                1.0513237714767456,
                2.9533040523529053
            ],
            "min" : [
                -1.056539535522461,
                -1,
                -16.242897033691406
            ],
            "type" : "VEC3"
        },
        {
            "bufferView" : 35,
            "componentType" : 5126,
            "count" : 96,
            "type" : "VEC3"
        },
        {
            "bufferView" : 36,
            "componentType" : 5126,
            "count" : 96,
            "type" : "VEC2"
        }
    ],
    "bufferViews" : [
        {
            "buffer" : 0,
            "byteLength" : 3456,
            "byteOffset" : 0
        },
        {
            "buffer" : 0,
            "byteLength" : 3456,
            "byteOffset" : 3456
        },
        {
            "buffer" : 0,
            "byteLength" : 2304,
            "byteOffset" : 6912
        },
        {
            "buffer" : 0,
            "byteLength" : 948,
            "byteOffset" : 9216
        },
        {
            "buffer" : 0,
            "byteLength" : 3456,
            "byteOffset" : 10164
        },
        {
            "buffer" : 0,
            "byteLength" : 3456,
            "byteOffset" : 13620
        },
        {
            "buffer" : 0,
            "byteLength" : 2304,
            "byteOffset" : 17076
        },
        {
            "buffer" : 0,
            "byteLength" : 948,
            "byteOffset" : 19380
        },
        {
            "buffer" : 0,
            "byteLength" : 82912,
            "byteOffset" : 20328
        },
        {
            "buffer" : 0,
            "byteLength" : 1416,
            "byteOffset" : 103240
        },
        {
            "buffer" : 0,
            "byteLength" : 1416,
            "byteOffset" : 104656
        },
        {
            "buffer" : 0,
            "byteLength" : 944,
            "byteOffset" : 106072
        },
        {
            "buffer" : 0,
            "byteLength" : 396,
            "byteOffset" : 107016
        },
        {
            "buffer" : 0,
            "byteLength" : 1176,
            "byteOffset" : 107412
        },
        {
            "buffer" : 0,
            "byteLength" : 1176,
            "byteOffset" : 108588
        },
        {
            "buffer" : 0,
            "byteLength" : 784,
            "byteOffset" : 109764
        },
        {
            "buffer" : 0,
            "byteLength" : 420,
            "byteOffset" : 110548
        },
        {
            "buffer" : 0,
            "byteLength" : 12132,
            "byteOffset" : 110968
        },
        {
            "buffer" : 0,
            "byteLength" : 12132,
            "byteOffset" : 123100
        },
        {
            "buffer" : 0,
            "byteLength" : 8088,
            "byteOffset" : 135232
        },
        {
            "buffer" : 0,
            "byteLength" : 3126,
            "byteOffset" : 143320
        },
        {
            "buffer" : 0,
            "byteLength" : 1152,
            "byteOffset" : 146448
        },
        {
            "buffer" : 0,
            "byteLength" : 1152,
            "byteOffset" : 147600
        },
        {
            "buffer" : 0,
            "byteLength" : 768,
            "byteOffset" : 148752
        },
        {
            "buffer" : 0,
            "byteLength" : 288,
            "byteOffset" : 149520
        },
        {
            "buffer" : 0,
            "byteLength" : 1416,
            "byteOffset" : 149808
        },
        {
            "buffer" : 0,
            "byteLength" : 1416,
            "byteOffset" : 151224
        },
        {
            "buffer" : 0,
            "byteLength" : 944,
            "byteOffset" : 152640
        },
        {
            "buffer" : 0,
            "byteLength" : 1176,
            "byteOffset" : 153584
        },
        {
            "buffer" : 0,
            "byteLength" : 1176,
            "byteOffset" : 154760
        },
        {
            "buffer" : 0,
            "byteLength" : 784,
            "byteOffset" : 155936
        },
        {
            "buffer" : 0,
            "byteLength" : 12132,
            "byteOffset" : 156720
        },
        {
            "buffer" : 0,
            "byteLength" : 12132,
            "byteOffset" : 168852
        },
        {
            "buffer" : 0,
            "byteLength" : 8088,
            "byteOffset" : 180984
        },
        {
            "buffer" : 0,
            "byteLength" : 1152,
            "byteOffset" : 189072
        },
        {
            "buffer" : 0,
            "byteLength" : 1152,
            "byteOffset" : 190224
        },
        {
            "buffer" : 0,
            "byteLength" : 768,
            "byteOffset" : 191376
        }
    ],
    "buffers" : [
        {
            "byteLength" : 192144,
            "uri" : "data:application/octet-stream;base64,"
        }
    ]
}
