{
    "asset" : {
        "generator" : "Khronos glTF Blender I/O v1.0.5",
        "version" : "2.0"
    },
    "scene" : 0,
    "scenes" : [
        {
            "name" : "Scene",
            "nodes" : [
                0
            ]
        }
    ],
    "nodes" : [
        {
            "mesh" : 0,
            "name" : "fanta.001",
            "scale" : [
                0.06454087793827057,
                0.06454087793827057,
                0.06454087793827057
            ],
            "translation" : [
                0.008673489093780518,
                0.18659134209156036,
                -0.8798815011978149
            ]
        }
    ],
    "animations" : [
        {
            "channels" : [
                {
                    "sampler" : 0,
                    "target" : {
                        "node" : 0,
                        "path" : "translation"
                    }
                },
                {
                    "sampler" : 1,
                    "target" : {
                        "node" : 0,
                        "path" : "rotation"
                    }
                },
                {
                    "sampler" : 2,
                    "target" : {
                        "node" : 0,
                        "path" : "scale"
                    }
                }
            ],
            "name" : "fanta.001Action",
            "samplers" : [
                {
                    "input" : 8,
                    "interpolation" : "LINEAR",
                    "output" : 9
                },
                {
                    "input" : 8,
                    "interpolation" : "LINEAR",
                    "output" : 10
                },
                {
                    "input" : 8,
                    "interpolation" : "LINEAR",
                    "output" : 11
                }
            ]
        }
    ],
    "materials" : [
        {
            "doubleSided" : true,
            "name" : "fanta",
            "pbrMetallicRoughness" : {
                "baseColorFactor" : [
                    0.7708646655082703,
                    0.8000000715255737,
                    0.18599095940589905,
                    1
                ],
                "metallicFactor" : 0,
                "roughnessFactor" : 0.5
            }
        },
        {
            "doubleSided" : true,
            "name" : "oranje",
            "pbrMetallicRoughness" : {
                "baseColorFactor" : [
                    0.8000000715255737,
                    0.23199275135993958,
                    0,
                    1
                ],
                "metallicFactor" : 0,
                "roughnessFactor" : 0.5
            }
        }
    ],
    "meshes" : [
        {
            "name" : "Cylinder.004",
            "primitives" : [
                {
                    "attributes" : {
                        "POSITION" : 0,
                        "NORMAL" : 1,
                        "TEXCOORD_0" : 2
                    },
                    "indices" : 3,
                    "material" : 0
                },
                {
                    "attributes" : {
                        "POSITION" : 4,
                        "NORMAL" : 5,
                        "TEXCOORD_0" : 6
                    },
                    "indices" : 7,
                    "material" : 1
                }
            ]
        }
    ],
    "accessors" : [
        {
            "bufferView" : 0,
            "componentType" : 5126,
            "count" : 796,
            "max" : [
                1.3375498056411743,
                5.949251174926758,
                1.3375499248504639
            ],
            "min" : [
                -1.3375498056411743,
                -2.733201026916504,
                -1.3375496864318848
            ],
            "type" : "VEC3"
        },
        {
            "bufferView" : 1,
            "componentType" : 5126,
            "count" : 796,
            "type" : "VEC3"
        },
        {
            "bufferView" : 2,
            "componentType" : 5126,
            "count" : 796,
            "type" : "VEC2"
        },
        {
            "bufferView" : 3,
            "componentType" : 5123,
            "count" : 1236,
            "type" : "SCALAR"
        },
        {
            "bufferView" : 4,
            "componentType" : 5126,
            "count" : 420,
            "max" : [
                1.3052741289138794,
                6.642531394958496,
                1.3052740097045898
            ],
            "min" : [
                -1.3052738904953003,
                1.0577733516693115,
                -1.3052737712860107
            ],
            "type" : "VEC3"
        },
        {
            "bufferView" : 5,
            "componentType" : 5126,
            "count" : 420,
            "type" : "VEC3"
        },
        {
            "bufferView" : 6,
            "componentType" : 5126,
            "count" : 420,
            "type" : "VEC2"
        },
        {
            "bufferView" : 7,
            "componentType" : 5123,
            "count" : 672,
            "type" : "SCALAR"
        },
        {
            "bufferView" : 8,
            "componentType" : 5126,
            "count" : 31,
            "max" : [
                1.25
            ],
            "min" : [
                0
            ],
            "type" : "SCALAR"
        },
        {
            "bufferView" : 9,
            "componentType" : 5126,
            "count" : 31,
            "type" : "VEC3"
        },
        {
            "bufferView" : 10,
            "componentType" : 5126,
            "count" : 31,
            "type" : "VEC4"
        },
        {
            "bufferView" : 11,
            "componentType" : 5126,
            "count" : 31,
            "type" : "VEC3"
        }
    ],
    "bufferViews" : [
        {
            "buffer" : 0,
            "byteLength" : 9552,
            "byteOffset" : 0
        },
        {
            "buffer" : 0,
            "byteLength" : 9552,
            "byteOffset" : 9552
        },
        {
            "buffer" : 0,
            "byteLength" : 6368,
            "byteOffset" : 19104
        },
        {
            "buffer" : 0,
            "byteLength" : 2472,
            "byteOffset" : 25472
        },
        {
            "buffer" : 0,
            "byteLength" : 5040,
            "byteOffset" : 27944
        },
        {
            "buffer" : 0,
            "byteLength" : 5040,
            "byteOffset" : 32984
        },
        {
            "buffer" : 0,
            "byteLength" : 3360,
            "byteOffset" : 38024
        },
        {
            "buffer" : 0,
            "byteLength" : 1344,
            "byteOffset" : 41384
        },
        {
            "buffer" : 0,
            "byteLength" : 124,
            "byteOffset" : 42728
        },
        {
            "buffer" : 0,
            "byteLength" : 372,
            "byteOffset" : 42852
        },
        {
            "buffer" : 0,
            "byteLength" : 496,
            "byteOffset" : 43224
        },
        {
            "buffer" : 0,
            "byteLength" : 372,
            "byteOffset" : 43720
        }
    ],
    "buffers" : [
        {
            "byteLength" : 44092,
            "uri" : "data:application/octet-stream;base64,"
        }
    ]
}
