{
    "asset" : {
        "generator" : "Khronos glTF Blender I/O v1.0.5",
        "version" : "2.0"
    },
    "scene" : 0,
    "scenes" : [
        {
            "name" : "Scene",
            "nodes" : [
                0,
                1,
                2
            ]
        }
    ],
    "nodes" : [
        {
            "mesh" : 0,
            "name" : "Cube",
            "translation" : [
                0,
                -1.346288800239563,
                0
            ]
        },
        {
            "mesh" : 1,
            "name" : "Cube.001",
            "scale" : [
                -0.05319249629974365,
                -0.05319249629974365,
                1.8067641258239746
            ],
            "translation" : [
                0,
                -1.346288800239563,
                0
            ]
        },
        {
            "mesh" : 2,
            "name" : "Cylinder",
            "rotation" : [
                0,
                0,
                -0.7071067690849304,
                0.7071068286895752
            ],
            "scale" : [
                0.15172629058361053,
                0.021359914913773537,
                0.15172629058361053
            ],
            "translation" : [
                0,
                -1.346288800239563,
                0.31246915459632874
            ]
        }
    ],
    "materials" : [
        {
            "doubleSided" : true,
            "name" : "Metal",
            "pbrMetallicRoughness" : {}
        },
        {
            "doubleSided" : true,
            "name" : "Material.002",
            "pbrMetallicRoughness" : {}
        },
        {
            "doubleSided" : true,
            "name" : "Material.001",
            "pbrMetallicRoughness" : {}
        }
    ],
    "meshes" : [
        {
            "name" : "Cube.001",
            "primitives" : [
                {
                    "attributes" : {
                        "POSITION" : 0,
                        "NORMAL" : 1
                    },
                    "indices" : 2,
                    "material" : 0
                }
            ]
        },
        {
            "name" : "Cube",
            "primitives" : [
                {
                    "attributes" : {
                        "POSITION" : 3,
                        "NORMAL" : 4,
                        "TEXCOORD_0" : 5
                    },
                    "indices" : 6,
                    "material" : 0
                },
                {
                    "attributes" : {
                        "POSITION" : 7,
                        "NORMAL" : 8,
                        "TEXCOORD_0" : 9
                    },
                    "indices" : 10,
                    "material" : 1
                }
            ]
        },
        {
            "name" : "Cylinder.003",
            "primitives" : [
                {
                    "attributes" : {
                        "POSITION" : 11,
                        "NORMAL" : 12,
                        "TEXCOORD_0" : 13
                    },
                    "indices" : 14,
                    "material" : 2
                }
            ]
        }
    ],
    "accessors" : [
        {
            "bufferView" : 0,
            "componentType" : 5126,
            "count" : 4365,
            "max" : [
                1.0449994802474976,
                1.2747761011123657,
                2.483203649520874
            ],
            "min" : [
                -1.045001745223999,
                -1.045001745223999,
                -1.7403373718261719
            ],
            "type" : "VEC3"
        },
        {
            "bufferView" : 1,
            "componentType" : 5126,
            "count" : 4365,
            "type" : "VEC3"
        },
        {
            "bufferView" : 2,
            "componentType" : 5123,
            "count" : 6720,
            "type" : "SCALAR"
        },
        {
            "bufferView" : 3,
            "componentType" : 5126,
            "count" : 13274,
            "max" : [
                20.18153953552246,
                45.01204299926758,
                1.5296716690063477
            ],
            "min" : [
                -20.18153953552246,
                -38.54351806640625,
                -0.9153363704681396
            ],
            "type" : "VEC3"
        },
        {
            "bufferView" : 4,
            "componentType" : 5126,
            "count" : 13274,
            "type" : "VEC3"
        },
        {
            "bufferView" : 5,
            "componentType" : 5126,
            "count" : 13274,
            "type" : "VEC2"
        },
        {
            "bufferView" : 6,
            "componentType" : 5123,
            "count" : 19992,
            "type" : "SCALAR"
        },
        {
            "bufferView" : 7,
            "componentType" : 5126,
            "count" : 854,
            "max" : [
                19.715770721435547,
                -35.20447540283203,
                1.6499258279800415
            ],
            "min" : [
                -19.715770721435547,
                -38.54352569580078,
                1.4488604068756104
            ],
            "type" : "VEC3"
        },
        {
            "bufferView" : 8,
            "componentType" : 5126,
            "count" : 854,
            "type" : "VEC3"
        },
        {
            "bufferView" : 9,
            "componentType" : 5126,
            "count" : 854,
            "type" : "VEC2"
        },
        {
            "bufferView" : 10,
            "componentType" : 5123,
            "count" : 1296,
            "type" : "SCALAR"
        },
        {
            "bufferView" : 11,
            "componentType" : 5126,
            "count" : 288,
            "max" : [
                16.50566291809082,
                48.80488586425781,
                11.536211013793945
            ],
            "min" : [
                14.668510437011719,
                -48.80488586425781,
                -11.536211013793945
            ],
            "type" : "VEC3"
        },
        {
            "bufferView" : 12,
            "componentType" : 5126,
            "count" : 288,
            "type" : "VEC3"
        },
        {
            "bufferView" : 13,
            "componentType" : 5126,
            "count" : 288,
            "type" : "VEC2"
        },
        {
            "bufferView" : 14,
            "componentType" : 5123,
            "count" : 528,
            "type" : "SCALAR"
        }
    ],
    "bufferViews" : [
        {
            "buffer" : 0,
            "byteLength" : 52380,
            "byteOffset" : 0
        },
        {
            "buffer" : 0,
            "byteLength" : 52380,
            "byteOffset" : 52380
        },
        {
            "buffer" : 0,
            "byteLength" : 13440,
            "byteOffset" : 104760
        },
        {
            "buffer" : 0,
            "byteLength" : 159288,
            "byteOffset" : 118200
        },
        {
            "buffer" : 0,
            "byteLength" : 159288,
            "byteOffset" : 277488
        },
        {
            "buffer" : 0,
            "byteLength" : 106192,
            "byteOffset" : 436776
        },
        {
            "buffer" : 0,
            "byteLength" : 39984,
            "byteOffset" : 542968
        },
        {
            "buffer" : 0,
            "byteLength" : 10248,
            "byteOffset" : 582952
        },
        {
            "buffer" : 0,
            "byteLength" : 10248,
            "byteOffset" : 593200
        },
        {
            "buffer" : 0,
            "byteLength" : 6832,
            "byteOffset" : 603448
        },
        {
            "buffer" : 0,
            "byteLength" : 2592,
            "byteOffset" : 610280
        },
        {
            "buffer" : 0,
            "byteLength" : 3456,
            "byteOffset" : 612872
        },
        {
            "buffer" : 0,
            "byteLength" : 3456,
            "byteOffset" : 616328
        },
        {
            "buffer" : 0,
            "byteLength" : 2304,
            "byteOffset" : 619784
        },
        {
            "buffer" : 0,
            "byteLength" : 1056,
            "byteOffset" : 622088
        }
    ],
    "buffers" : [
        {
            "byteLength" : 623144,
            "uri" : "data:application/octet-stream;base64,"
        }
    ]
}
